REM DIRINDEX 1\2\6,1\2\7,1\2\8,1\3\9,1\3\10,1\3\11,1\4\12,1\4\13,1\4\14,1\5\15,1\5\16,1\5\17,1\5\18
REM DIRNAME cjc019,folder01,folder02,folder03,folder04,folder05,folder06,folder07,folder08,folder09,folder10,folder11,folder12,folder13,folder14,folder15,folder16,folder17
TITLE ""
FILE "2Q_j_1457-1470.mp3" MP3
  TRACK 01 AUDIO
    TITLE "6:cjc019_0834"
    INDEX 01 00:00:00
  TRACK 02 AUDIO
    TITLE "0:"
    INDEX 01 00:01:03
  TRACK 03 AUDIO
    TITLE "7:cjc019_0835"
    INDEX 01 00:01:60
  TRACK 04 AUDIO
    TITLE "0:"
    INDEX 01 00:04:23
  TRACK 05 AUDIO
    TITLE "8:cjc019_0836"
    INDEX 01 00:05:05
  TRACK 06 AUDIO
    TITLE "0:"
    INDEX 01 00:07:70
  TRACK 07 AUDIO
    TITLE "6:cjc019_0837"
    INDEX 01 00:08:52
  TRACK 08 AUDIO
    TITLE "0:"
    INDEX 01 00:10:45
  TRACK 09 AUDIO
    TITLE "7:cjc019_0838"
    INDEX 01 00:11:29
  TRACK 10 AUDIO
    TITLE "0:"
    INDEX 01 00:14:21
  TRACK 11 AUDIO
    TITLE "8:cjc019_0839"
    INDEX 01 00:15:07
  TRACK 12 AUDIO
    TITLE "0:"
    INDEX 01 00:18:19
  TRACK 13 AUDIO
    TITLE "6:cjc019_0840"
    INDEX 01 00:18:70
  TRACK 14 AUDIO
    TITLE "0:"
    INDEX 01 00:20:02
  TRACK 15 AUDIO
    TITLE "7:cjc019_0841"
    INDEX 01 00:20:55
  TRACK 16 AUDIO
    TITLE "0:"
    INDEX 01 00:26:67
  TRACK 17 AUDIO
    TITLE "8:cjc019_0842"
    INDEX 01 00:27:45
  TRACK 18 AUDIO
    TITLE "0:"
    INDEX 01 00:30:16
  TRACK 19 AUDIO
    TITLE "6:cjc019_0843"
    INDEX 01 00:30:69
  TRACK 20 AUDIO
    TITLE "0:"
    INDEX 01 00:32:21
  TRACK 21 AUDIO
    TITLE "7:cjc019_0844"
    INDEX 01 00:32:72
  TRACK 22 AUDIO
    TITLE "0:"
    INDEX 01 00:34:61
  TRACK 23 AUDIO
    TITLE "8:cjc019_0845"
    INDEX 01 00:35:39
  TRACK 24 AUDIO
    TITLE "0:"
    INDEX 01 00:41:14
  TRACK 25 AUDIO
    TITLE "6:cjc019_0846"
    INDEX 01 00:41:67
  TRACK 26 AUDIO
    TITLE "0:"
    INDEX 01 00:43:07
  TRACK 27 AUDIO
    TITLE "7:cjc019_0847"
    INDEX 01 00:43:58
  TRACK 28 AUDIO
    TITLE "0:"
    INDEX 01 00:46:68
  TRACK 29 AUDIO
    TITLE "8:cjc019_0848"
    INDEX 01 00:47:46
  TRACK 30 AUDIO
    TITLE "0:"
    INDEX 01 00:51:62
  TRACK 31 AUDIO
    TITLE "6:cjc019_0849"
    INDEX 01 00:52:39
  TRACK 32 AUDIO
    TITLE "0:"
    INDEX 01 00:53:58
  TRACK 33 AUDIO
    TITLE "7:cjc019_0850"
    INDEX 01 00:54:38
  TRACK 34 AUDIO
    TITLE "0:"
    INDEX 01 00:57:01
  TRACK 35 AUDIO
    TITLE "8:cjc019_0851"
    INDEX 01 00:57:58
  TRACK 36 AUDIO
    TITLE "0:"
    INDEX 01 01:02:48
  TRACK 37 AUDIO
    TITLE "6:cjc019_0852"
    INDEX 01 01:03:27
  TRACK 38 AUDIO
    TITLE "0:"
    INDEX 01 01:04:27
  TRACK 39 AUDIO
    TITLE "7:cjc019_0853"
    INDEX 01 01:05:19
  TRACK 40 AUDIO
    TITLE "0:"
    INDEX 01 01:08:64
  TRACK 41 AUDIO
    TITLE "8:cjc019_0854"
    INDEX 01 01:09:38
  TRACK 42 AUDIO
    TITLE "0:"
    INDEX 01 01:12:09
  TRACK 43 AUDIO
    TITLE "6:cjc019_0855"
    INDEX 01 01:12:68
  TRACK 44 AUDIO
    TITLE "0:"
    INDEX 01 01:14:29
  TRACK 45 AUDIO
    TITLE "7:cjc019_0856"
    INDEX 01 01:15:09
  TRACK 46 AUDIO
    TITLE "0:"
    INDEX 01 01:16:56
  TRACK 47 AUDIO
    TITLE "8:cjc019_0857"
    INDEX 01 01:17:35
  TRACK 48 AUDIO
    TITLE "0:"
    INDEX 01 01:22:70
  TRACK 49 AUDIO
    TITLE "6:cjc019_0858"
    INDEX 01 01:23:48
  TRACK 50 AUDIO
    TITLE "0:"
    INDEX 01 01:25:13
  TRACK 51 AUDIO
    TITLE "7:cjc019_0859"
    INDEX 01 01:25:72
  TRACK 52 AUDIO
    TITLE "0:"
    INDEX 01 01:28:00
  TRACK 53 AUDIO
    TITLE "8:cjc019_0860"
    INDEX 01 01:28:53
  TRACK 54 AUDIO
    TITLE "0:"
    INDEX 01 01:31:28
  TRACK 55 AUDIO
    TITLE "6:cjc019_0861"
    INDEX 01 01:32:04
  TRACK 56 AUDIO
    TITLE "0:"
    INDEX 01 01:33:44
  TRACK 57 AUDIO
    TITLE "7:cjc019_0862"
    INDEX 01 01:34:26
  TRACK 58 AUDIO
    TITLE "0:"
    INDEX 01 01:36:07
  TRACK 59 AUDIO
    TITLE "8:cjc019_0863"
    INDEX 01 01:36:62
  TRACK 60 AUDIO
    TITLE "0:"
    INDEX 01 01:40:35
  TRACK 61 AUDIO
    TITLE "6:cjc019_0864"
    INDEX 01 01:41:18
  TRACK 62 AUDIO
    TITLE "0:"
    INDEX 01 01:42:35
  TRACK 63 AUDIO
    TITLE "7:cjc019_0865"
    INDEX 01 01:43:13
  TRACK 64 AUDIO
    TITLE "0:"
    INDEX 01 01:47:37
  TRACK 65 AUDIO
    TITLE "8:cjc019_0866"
    INDEX 01 01:48:12
  TRACK 66 AUDIO
    TITLE "0:"
    INDEX 01 01:50:33
  TRACK 67 AUDIO
    TITLE "6:cjc019_0867"
    INDEX 01 01:51:15
  TRACK 68 AUDIO
    TITLE "0:"
    INDEX 01 01:52:30
  TRACK 69 AUDIO
    TITLE "7:cjc019_0868"
    INDEX 01 01:53:04
  TRACK 70 AUDIO
    TITLE "0:"
    INDEX 01 01:57:25
  TRACK 71 AUDIO
    TITLE "8:cjc019_0869"
    INDEX 01 01:58:01
  TRACK 72 AUDIO
    TITLE "0:"
    INDEX 01 02:01:43
  TRACK 73 AUDIO
    TITLE "6:cjc019_0870"
    INDEX 01 02:02:22
  TRACK 74 AUDIO
    TITLE "0:"
    INDEX 01 02:03:36
  TRACK 75 AUDIO
    TITLE "7:cjc019_0871"
    INDEX 01 02:04:23
  TRACK 76 AUDIO
    TITLE "0:"
    INDEX 01 02:06:28
  TRACK 77 AUDIO
    TITLE "8:cjc019_0872"
    INDEX 01 02:07:04
  TRACK 78 AUDIO
    TITLE "0:"
    INDEX 01 02:10:10
  TRACK 79 AUDIO
    TITLE "6:cjc019_0873"
    INDEX 01 02:10:63
  TRACK 80 AUDIO
    TITLE "0:"
    INDEX 01 02:12:01
  TRACK 81 AUDIO
    TITLE "7:cjc019_0874"
    INDEX 01 02:12:56
  TRACK 82 AUDIO
    TITLE "0:"
    INDEX 01 02:18:53
  TRACK 83 AUDIO
    TITLE "8:cjc019_0875"
    INDEX 01 02:19:21
  TRACK 84 AUDIO
    TITLE "0:"
    INDEX 01 02:23:40
